<mxfile host="Electron" modified="2024-10-04T18:14:45.160Z" agent="Mozilla/5.0 (Windows NT 10.0; Win64; x64) AppleWebKit/537.36 (KHTML, like Gecko) draw.io/23.0.2 Chrome/120.0.6099.109 Electron/28.1.0 Safari/537.36" etag="FzbVRQ0TeotxrG6dUiVG" version="23.0.2" type="device">
  <diagram name="Page-1" id="2YBvvXClWsGukQMizWep">
    <mxGraphModel dx="1436" dy="606" grid="0" gridSize="10" guides="1" tooltips="1" connect="1" arrows="1" fold="1" page="0" pageScale="1" pageWidth="850" pageHeight="1100" math="0" shadow="0">
      <root>
        <mxCell id="0" />
        <mxCell id="1" parent="0" />
        <mxCell id="hzaYRkzp_LopEzToYhyO-3" value="DB" style="shape=umlLifeline;perimeter=lifelinePerimeter;whiteSpace=wrap;html=1;container=1;dropTarget=0;collapsible=0;recursiveResize=0;outlineConnect=0;portConstraint=eastwest;newEdgeStyle={&quot;curved&quot;:0,&quot;rounded&quot;:0};" parent="1" vertex="1">
          <mxGeometry x="301" y="32" width="100" height="659" as="geometry" />
        </mxCell>
        <mxCell id="JpaTvgJXBN56mBUlhyUK-11" value="Saves Quiz" style="html=1;verticalAlign=bottom;endArrow=block;curved=0;rounded=0;entryX=0;entryY=0;entryDx=0;entryDy=5;entryPerimeter=0;exitX=1;exitY=0;exitDx=0;exitDy=5;exitPerimeter=0;" parent="hzaYRkzp_LopEzToYhyO-3" edge="1">
          <mxGeometry width="80" relative="1" as="geometry">
            <mxPoint x="-103" y="227" as="sourcePoint" />
            <mxPoint x="45" y="227" as="targetPoint" />
            <mxPoint as="offset" />
          </mxGeometry>
        </mxCell>
        <mxCell id="JpaTvgJXBN56mBUlhyUK-10" value="" style="html=1;points=[[0,0,0,0,5],[0,1,0,0,-5],[1,0,0,0,5],[1,1,0,0,-5]];perimeter=orthogonalPerimeter;outlineConnect=0;targetShapes=umlLifeline;portConstraint=eastwest;newEdgeStyle={&quot;curved&quot;:0,&quot;rounded&quot;:0};" parent="hzaYRkzp_LopEzToYhyO-3" vertex="1">
          <mxGeometry x="45" y="217" width="10" height="19" as="geometry" />
        </mxCell>
        <mxCell id="DzmuH9avELXMIIvXB95H-7" value="View Room ID" style="html=1;verticalAlign=bottom;endArrow=block;curved=0;rounded=0;exitX=1;exitY=0;exitDx=0;exitDy=5;exitPerimeter=0;" parent="hzaYRkzp_LopEzToYhyO-3" edge="1">
          <mxGeometry width="80" relative="1" as="geometry">
            <mxPoint x="-262" y="270" as="sourcePoint" />
            <mxPoint x="-115" y="270" as="targetPoint" />
          </mxGeometry>
        </mxCell>
        <mxCell id="DzmuH9avELXMIIvXB95H-8" value="View Result" style="html=1;verticalAlign=bottom;endArrow=block;curved=0;rounded=0;exitX=1;exitY=0;exitDx=0;exitDy=5;exitPerimeter=0;" parent="hzaYRkzp_LopEzToYhyO-3" edge="1">
          <mxGeometry width="80" relative="1" as="geometry">
            <mxPoint x="-261" y="289.15999999999997" as="sourcePoint" />
            <mxPoint x="-114" y="289.15999999999997" as="targetPoint" />
          </mxGeometry>
        </mxCell>
        <mxCell id="DzmuH9avELXMIIvXB95H-9" value="Copy to Clipboard" style="html=1;verticalAlign=bottom;endArrow=block;curved=0;rounded=0;exitX=1;exitY=0;exitDx=0;exitDy=5;exitPerimeter=0;" parent="hzaYRkzp_LopEzToYhyO-3" edge="1">
          <mxGeometry width="80" relative="1" as="geometry">
            <mxPoint x="-260" y="313" as="sourcePoint" />
            <mxPoint x="-113" y="313" as="targetPoint" />
          </mxGeometry>
        </mxCell>
        <mxCell id="DzmuH9avELXMIIvXB95H-10" value="Home" style="html=1;verticalAlign=bottom;endArrow=block;curved=0;rounded=0;exitX=1;exitY=0;exitDx=0;exitDy=5;exitPerimeter=0;" parent="hzaYRkzp_LopEzToYhyO-3" edge="1">
          <mxGeometry width="80" relative="1" as="geometry">
            <mxPoint x="-260" y="332" as="sourcePoint" />
            <mxPoint x="-113" y="332" as="targetPoint" />
          </mxGeometry>
        </mxCell>
        <mxCell id="JpaTvgJXBN56mBUlhyUK-13" value="Generates Room ID" style="html=1;verticalAlign=bottom;endArrow=open;dashed=1;endSize=8;curved=0;rounded=0;exitX=0;exitY=1;exitDx=0;exitDy=-5;exitPerimeter=0;entryX=1;entryY=1;entryDx=0;entryDy=-5;entryPerimeter=0;" parent="hzaYRkzp_LopEzToYhyO-3" edge="1">
          <mxGeometry x="-0.0028" relative="1" as="geometry">
            <mxPoint x="-113" y="244" as="sourcePoint" />
            <mxPoint x="-261" y="243" as="targetPoint" />
            <mxPoint as="offset" />
          </mxGeometry>
        </mxCell>
        <mxCell id="JpaTvgJXBN56mBUlhyUK-7" value="Submits" style="html=1;verticalAlign=bottom;endArrow=block;curved=0;rounded=0;exitX=1;exitY=0;exitDx=0;exitDy=5;exitPerimeter=0;" parent="hzaYRkzp_LopEzToYhyO-3" edge="1">
          <mxGeometry width="80" relative="1" as="geometry">
            <mxPoint x="-260" y="226" as="sourcePoint" />
            <mxPoint x="-113" y="226" as="targetPoint" />
          </mxGeometry>
        </mxCell>
        <mxCell id="DzmuH9avELXMIIvXB95H-1" value="" style="shape=umlLifeline;perimeter=lifelinePerimeter;whiteSpace=wrap;html=1;container=1;dropTarget=0;collapsible=0;recursiveResize=0;outlineConnect=0;portConstraint=eastwest;newEdgeStyle={&quot;curved&quot;:0,&quot;rounded&quot;:0};participant=umlActor;" parent="1" vertex="1">
          <mxGeometry x="25" y="37" width="20" height="403" as="geometry" />
        </mxCell>
        <mxCell id="JpaTvgJXBN56mBUlhyUK-1" value="" style="html=1;points=[[0,0,0,0,5],[0,1,0,0,-5],[1,0,0,0,5],[1,1,0,0,-5]];perimeter=orthogonalPerimeter;outlineConnect=0;targetShapes=umlLifeline;portConstraint=eastwest;newEdgeStyle={&quot;curved&quot;:0,&quot;rounded&quot;:0};" parent="DzmuH9avELXMIIvXB95H-1" vertex="1">
          <mxGeometry x="5" y="58" width="10" height="299" as="geometry" />
        </mxCell>
        <mxCell id="hzaYRkzp_LopEzToYhyO-2" value="Admin" style="shape=umlLifeline;perimeter=lifelinePerimeter;whiteSpace=wrap;html=1;container=1;dropTarget=0;collapsible=0;recursiveResize=0;outlineConnect=0;portConstraint=eastwest;newEdgeStyle={&quot;curved&quot;:0,&quot;rounded&quot;:0};" parent="1" vertex="1">
          <mxGeometry x="143" y="34" width="100" height="654" as="geometry" />
        </mxCell>
        <mxCell id="JpaTvgJXBN56mBUlhyUK-2" value="" style="html=1;points=[[0,0,0,0,5],[0,1,0,0,-5],[1,0,0,0,5],[1,1,0,0,-5]];perimeter=orthogonalPerimeter;outlineConnect=0;targetShapes=umlLifeline;portConstraint=eastwest;newEdgeStyle={&quot;curved&quot;:0,&quot;rounded&quot;:0};" parent="hzaYRkzp_LopEzToYhyO-2" vertex="1">
          <mxGeometry x="45" y="57" width="10" height="306" as="geometry" />
        </mxCell>
        <mxCell id="DzmuH9avELXMIIvXB95H-14" value="" style="html=1;points=[[0,0,0,0,5],[0,1,0,0,-5],[1,0,0,0,5],[1,1,0,0,-5]];perimeter=orthogonalPerimeter;outlineConnect=0;targetShapes=umlLifeline;portConstraint=eastwest;newEdgeStyle={&quot;curved&quot;:0,&quot;rounded&quot;:0};" parent="hzaYRkzp_LopEzToYhyO-2" vertex="1">
          <mxGeometry x="203" y="535" width="10" height="32" as="geometry" />
        </mxCell>
        <mxCell id="DzmuH9avELXMIIvXB95H-17" value="" style="html=1;points=[[0,0,0,0,5],[0,1,0,0,-5],[1,0,0,0,5],[1,1,0,0,-5]];perimeter=orthogonalPerimeter;outlineConnect=0;targetShapes=umlLifeline;portConstraint=eastwest;newEdgeStyle={&quot;curved&quot;:0,&quot;rounded&quot;:0};" parent="hzaYRkzp_LopEzToYhyO-2" vertex="1">
          <mxGeometry x="45" y="494" width="10" height="112" as="geometry" />
        </mxCell>
        <mxCell id="ceTiRcbH1Ae4_WQJ_M4x-2" value="Join Quiz" style="html=1;verticalAlign=bottom;endArrow=block;curved=0;rounded=0;entryX=0;entryY=0;entryDx=0;entryDy=5;entryPerimeter=0;exitX=1;exitY=0;exitDx=0;exitDy=5;exitPerimeter=0;" parent="hzaYRkzp_LopEzToYhyO-2" edge="1">
          <mxGeometry width="80" relative="1" as="geometry">
            <mxPoint x="-102" y="514" as="sourcePoint" />
            <mxPoint x="46" y="514" as="targetPoint" />
          </mxGeometry>
        </mxCell>
        <mxCell id="ceTiRcbH1Ae4_WQJ_M4x-3" value="Displays Quiz" style="html=1;verticalAlign=bottom;endArrow=open;dashed=1;endSize=8;curved=0;rounded=0;exitX=0;exitY=1;exitDx=0;exitDy=-5;exitPerimeter=0;" parent="hzaYRkzp_LopEzToYhyO-2" edge="1">
          <mxGeometry relative="1" as="geometry">
            <mxPoint x="43" y="566" as="sourcePoint" />
            <mxPoint x="-103" y="566" as="targetPoint" />
          </mxGeometry>
        </mxCell>
        <mxCell id="ceTiRcbH1Ae4_WQJ_M4x-4" value="Gives Quiz" style="html=1;verticalAlign=bottom;endArrow=block;curved=0;rounded=0;entryX=0;entryY=0;entryDx=0;entryDy=5;entryPerimeter=0;exitX=1;exitY=0;exitDx=0;exitDy=5;exitPerimeter=0;" parent="hzaYRkzp_LopEzToYhyO-2" edge="1">
          <mxGeometry width="80" relative="1" as="geometry">
            <mxPoint x="-103" y="584" as="sourcePoint" />
            <mxPoint x="45" y="584" as="targetPoint" />
          </mxGeometry>
        </mxCell>
        <mxCell id="ceTiRcbH1Ae4_WQJ_M4x-7" value="Displays Score" style="html=1;verticalAlign=bottom;endArrow=open;dashed=1;endSize=8;curved=0;rounded=0;exitX=0;exitY=1;exitDx=0;exitDy=-5;exitPerimeter=0;" parent="hzaYRkzp_LopEzToYhyO-2" edge="1">
          <mxGeometry relative="1" as="geometry">
            <mxPoint x="42" y="600" as="sourcePoint" />
            <mxPoint x="-104" y="600" as="targetPoint" />
          </mxGeometry>
        </mxCell>
        <mxCell id="ceTiRcbH1Ae4_WQJ_M4x-14" value="Asks For Room ID" style="html=1;verticalAlign=bottom;endArrow=open;dashed=1;endSize=8;curved=0;rounded=0;exitX=0;exitY=1;exitDx=0;exitDy=-5;exitPerimeter=0;" parent="hzaYRkzp_LopEzToYhyO-2" edge="1">
          <mxGeometry relative="1" as="geometry">
            <mxPoint x="42" y="532" as="sourcePoint" />
            <mxPoint x="-104" y="532" as="targetPoint" />
          </mxGeometry>
        </mxCell>
        <mxCell id="ceTiRcbH1Ae4_WQJ_M4x-15" value="Gives Room ID" style="html=1;verticalAlign=bottom;endArrow=block;curved=0;rounded=0;entryX=0;entryY=0;entryDx=0;entryDy=5;entryPerimeter=0;exitX=1;exitY=0;exitDx=0;exitDy=5;exitPerimeter=0;" parent="hzaYRkzp_LopEzToYhyO-2" edge="1">
          <mxGeometry width="80" relative="1" as="geometry">
            <mxPoint x="-103" y="549" as="sourcePoint" />
            <mxPoint x="45" y="549" as="targetPoint" />
          </mxGeometry>
        </mxCell>
        <mxCell id="ceTiRcbH1Ae4_WQJ_M4x-25" value="" style="shape=umlDestroy;whiteSpace=wrap;html=1;strokeWidth=3;targetShapes=umlLifeline;" parent="hzaYRkzp_LopEzToYhyO-2" vertex="1">
          <mxGeometry x="193" y="641" width="30" height="30" as="geometry" />
        </mxCell>
        <mxCell id="DzmuH9avELXMIIvXB95H-12" value="" style="shape=umlLifeline;perimeter=lifelinePerimeter;whiteSpace=wrap;html=1;container=1;dropTarget=0;collapsible=0;recursiveResize=0;outlineConnect=0;portConstraint=eastwest;newEdgeStyle={&quot;curved&quot;:0,&quot;rounded&quot;:0};participant=umlActor;" parent="hzaYRkzp_LopEzToYhyO-2" vertex="1">
          <mxGeometry x="-118" y="452" width="20" height="202" as="geometry" />
        </mxCell>
        <mxCell id="ceTiRcbH1Ae4_WQJ_M4x-9" value="" style="html=1;points=[[0,0,0,0,5],[0,1,0,0,-5],[1,0,0,0,5],[1,1,0,0,-5]];perimeter=orthogonalPerimeter;outlineConnect=0;targetShapes=umlLifeline;portConstraint=eastwest;newEdgeStyle={&quot;curved&quot;:0,&quot;rounded&quot;:0};" parent="DzmuH9avELXMIIvXB95H-12" vertex="1">
          <mxGeometry x="5" y="51" width="10" height="112" as="geometry" />
        </mxCell>
        <mxCell id="DzmuH9avELXMIIvXB95H-15" value="Varifies" style="html=1;verticalAlign=bottom;endArrow=block;curved=0;rounded=0;" parent="hzaYRkzp_LopEzToYhyO-2" edge="1">
          <mxGeometry x="-0.0045" width="80" relative="1" as="geometry">
            <mxPoint x="57" y="544" as="sourcePoint" />
            <mxPoint x="203" y="544" as="targetPoint" />
            <mxPoint as="offset" />
          </mxGeometry>
        </mxCell>
        <mxCell id="DzmuH9avELXMIIvXB95H-16" value="Varified" style="html=1;verticalAlign=bottom;endArrow=open;dashed=1;endSize=8;curved=0;rounded=0;" parent="hzaYRkzp_LopEzToYhyO-2" edge="1">
          <mxGeometry relative="1" as="geometry">
            <mxPoint x="200" y="562" as="sourcePoint" />
            <mxPoint x="56" y="562" as="targetPoint" />
          </mxGeometry>
        </mxCell>
        <mxCell id="JpaTvgJXBN56mBUlhyUK-3" value="Select Category" style="html=1;verticalAlign=bottom;endArrow=block;curved=0;rounded=0;" parent="1" edge="1">
          <mxGeometry width="80" relative="1" as="geometry">
            <mxPoint x="40" y="101" as="sourcePoint" />
            <mxPoint x="187" y="101" as="targetPoint" />
          </mxGeometry>
        </mxCell>
        <mxCell id="JpaTvgJXBN56mBUlhyUK-6" value="Generate" style="html=1;verticalAlign=bottom;endArrow=block;curved=0;rounded=0;entryX=0;entryY=0;entryDx=0;entryDy=5;entryPerimeter=0;exitX=1;exitY=0;exitDx=0;exitDy=5;exitPerimeter=0;" parent="1" edge="1">
          <mxGeometry width="80" relative="1" as="geometry">
            <mxPoint x="40" y="119" as="sourcePoint" />
            <mxPoint x="188" y="119" as="targetPoint" />
            <mxPoint as="offset" />
          </mxGeometry>
        </mxCell>
        <mxCell id="DzmuH9avELXMIIvXB95H-4" value="Teacher" style="text;html=1;align=center;verticalAlign=middle;resizable=0;points=[];autosize=1;strokeColor=none;fillColor=none;" parent="1" vertex="1">
          <mxGeometry x="-35" y="44" width="61" height="26" as="geometry" />
        </mxCell>
        <mxCell id="DzmuH9avELXMIIvXB95H-13" value="" style="shape=umlDestroy;whiteSpace=wrap;html=1;strokeWidth=3;targetShapes=umlLifeline;" parent="1" vertex="1">
          <mxGeometry x="20" y="432" width="30" height="30" as="geometry" />
        </mxCell>
        <mxCell id="fat7YEHWr_WbHfREjooX-1" value="AI-Model" style="shape=umlLifeline;perimeter=lifelinePerimeter;whiteSpace=wrap;html=1;container=1;dropTarget=0;collapsible=0;recursiveResize=0;outlineConnect=0;portConstraint=eastwest;newEdgeStyle={&quot;curved&quot;:0,&quot;rounded&quot;:0};" parent="1" vertex="1">
          <mxGeometry x="479" y="27" width="100" height="403" as="geometry" />
        </mxCell>
        <mxCell id="fat7YEHWr_WbHfREjooX-2" value="" style="html=1;points=[[0,0,0,0,5],[0,1,0,0,-5],[1,0,0,0,5],[1,1,0,0,-5]];perimeter=orthogonalPerimeter;outlineConnect=0;targetShapes=umlLifeline;portConstraint=eastwest;newEdgeStyle={&quot;curved&quot;:0,&quot;rounded&quot;:0};" parent="fat7YEHWr_WbHfREjooX-1" vertex="1">
          <mxGeometry x="45" y="83" width="10" height="122" as="geometry" />
        </mxCell>
        <mxCell id="fat7YEHWr_WbHfREjooX-4" value="" style="shape=umlDestroy;whiteSpace=wrap;html=1;strokeWidth=3;targetShapes=umlLifeline;" parent="1" vertex="1">
          <mxGeometry x="514" y="422" width="30" height="30" as="geometry" />
        </mxCell>
        <mxCell id="fat7YEHWr_WbHfREjooX-5" value="Generates Using AI-API" style="html=1;verticalAlign=bottom;endArrow=block;curved=0;rounded=0;" parent="1" edge="1">
          <mxGeometry x="0.0016" width="80" relative="1" as="geometry">
            <mxPoint x="198" y="120" as="sourcePoint" />
            <mxPoint x="523" y="120" as="targetPoint" />
            <mxPoint as="offset" />
          </mxGeometry>
        </mxCell>
        <mxCell id="fat7YEHWr_WbHfREjooX-7" value="Generates Quiz" style="html=1;verticalAlign=bottom;endArrow=open;dashed=1;endSize=8;curved=0;rounded=0;exitX=0;exitY=1;exitDx=0;exitDy=-5;exitPerimeter=0;entryX=1;entryY=1;entryDx=0;entryDy=-5;entryPerimeter=0;" parent="1" edge="1">
          <mxGeometry x="0.0016" relative="1" as="geometry">
            <mxPoint x="522" y="142" as="sourcePoint" />
            <mxPoint x="197" y="141" as="targetPoint" />
            <mxPoint as="offset" />
          </mxGeometry>
        </mxCell>
        <mxCell id="fat7YEHWr_WbHfREjooX-9" value="Displays Quiz" style="html=1;verticalAlign=bottom;endArrow=open;dashed=1;endSize=8;curved=0;rounded=0;exitX=0;exitY=1;exitDx=0;exitDy=-5;exitPerimeter=0;entryX=1;entryY=1;entryDx=0;entryDy=-5;entryPerimeter=0;" parent="1" edge="1">
          <mxGeometry relative="1" as="geometry">
            <mxPoint x="189" y="140" as="sourcePoint" />
            <mxPoint x="41" y="139" as="targetPoint" />
          </mxGeometry>
        </mxCell>
        <mxCell id="fat7YEHWr_WbHfREjooX-10" value="EditTitle, Question" style="html=1;verticalAlign=bottom;endArrow=block;curved=0;rounded=0;entryX=0;entryY=0;entryDx=0;entryDy=5;entryPerimeter=0;exitX=1;exitY=0;exitDx=0;exitDy=5;exitPerimeter=0;" parent="1" edge="1">
          <mxGeometry width="80" relative="1" as="geometry">
            <mxPoint x="39" y="172" as="sourcePoint" />
            <mxPoint x="187" y="172" as="targetPoint" />
            <mxPoint as="offset" />
          </mxGeometry>
        </mxCell>
        <mxCell id="fat7YEHWr_WbHfREjooX-11" value="opt" style="shape=umlFrame;whiteSpace=wrap;html=1;pointerEvents=0;" parent="1" vertex="1">
          <mxGeometry x="-34" y="150" width="646" height="89" as="geometry" />
        </mxCell>
        <mxCell id="fat7YEHWr_WbHfREjooX-12" value="Delete Question" style="html=1;verticalAlign=bottom;endArrow=block;curved=0;rounded=0;entryX=0;entryY=0;entryDx=0;entryDy=5;entryPerimeter=0;exitX=1;exitY=0;exitDx=0;exitDy=5;exitPerimeter=0;" parent="1" edge="1">
          <mxGeometry width="80" relative="1" as="geometry">
            <mxPoint x="41" y="190" as="sourcePoint" />
            <mxPoint x="189" y="190" as="targetPoint" />
            <mxPoint as="offset" />
          </mxGeometry>
        </mxCell>
        <mxCell id="fat7YEHWr_WbHfREjooX-13" value="Add More (One Question)" style="html=1;verticalAlign=bottom;endArrow=block;curved=0;rounded=0;entryX=0;entryY=0;entryDx=0;entryDy=5;entryPerimeter=0;exitX=1;exitY=0;exitDx=0;exitDy=5;exitPerimeter=0;" parent="1" edge="1">
          <mxGeometry width="80" relative="1" as="geometry">
            <mxPoint x="41" y="209" as="sourcePoint" />
            <mxPoint x="189" y="209" as="targetPoint" />
            <mxPoint as="offset" />
          </mxGeometry>
        </mxCell>
        <mxCell id="fat7YEHWr_WbHfREjooX-14" value="Generates Using AI-API" style="html=1;verticalAlign=bottom;endArrow=block;curved=0;rounded=0;" parent="1" edge="1">
          <mxGeometry x="0.0016" width="80" relative="1" as="geometry">
            <mxPoint x="199" y="208" as="sourcePoint" />
            <mxPoint x="524" y="208" as="targetPoint" />
            <mxPoint as="offset" />
          </mxGeometry>
        </mxCell>
        <mxCell id="fat7YEHWr_WbHfREjooX-28" value="Generates Quiz" style="html=1;verticalAlign=bottom;endArrow=open;dashed=1;endSize=8;curved=0;rounded=0;exitX=0;exitY=1;exitDx=0;exitDy=-5;exitPerimeter=0;entryX=1;entryY=1;entryDx=0;entryDy=-5;entryPerimeter=0;" parent="1" edge="1">
          <mxGeometry x="0.0016" relative="1" as="geometry">
            <mxPoint x="523" y="227" as="sourcePoint" />
            <mxPoint x="198" y="226" as="targetPoint" />
            <mxPoint as="offset" />
          </mxGeometry>
        </mxCell>
        <mxCell id="ceTiRcbH1Ae4_WQJ_M4x-23" value="" style="shape=umlDestroy;whiteSpace=wrap;html=1;strokeWidth=3;targetShapes=umlLifeline;" parent="1" vertex="1">
          <mxGeometry x="178" y="671" width="30" height="30" as="geometry" />
        </mxCell>
        <mxCell id="ceTiRcbH1Ae4_WQJ_M4x-22" value="" style="shape=umlDestroy;whiteSpace=wrap;html=1;strokeWidth=3;targetShapes=umlLifeline;" parent="1" vertex="1">
          <mxGeometry x="20" y="672" width="30" height="30" as="geometry" />
        </mxCell>
        <mxCell id="DzmuH9avELXMIIvXB95H-11" value="View Dashboard" style="html=1;verticalAlign=bottom;endArrow=open;dashed=1;endSize=8;curved=0;rounded=0;exitX=0;exitY=1;exitDx=0;exitDy=-5;exitPerimeter=0;entryX=1;entryY=1;entryDx=0;entryDy=-5;entryPerimeter=0;" parent="1" edge="1">
          <mxGeometry relative="1" as="geometry">
            <mxPoint x="187" y="387" as="sourcePoint" />
            <mxPoint x="39" y="386" as="targetPoint" />
          </mxGeometry>
        </mxCell>
        <mxCell id="DzmuH9avELXMIIvXB95H-6" value="opt" style="shape=umlFrame;whiteSpace=wrap;html=1;pointerEvents=0;" parent="1" vertex="1">
          <mxGeometry x="-36" y="283" width="304" height="125" as="geometry" />
        </mxCell>
        <mxCell id="1AI-hSHck0MIl6O2WmxS-1" value="Displays Quiz" style="html=1;verticalAlign=bottom;endArrow=open;dashed=1;endSize=8;curved=0;rounded=0;exitX=0;exitY=1;exitDx=0;exitDy=-5;exitPerimeter=0;entryX=1;entryY=1;entryDx=0;entryDy=-5;entryPerimeter=0;" parent="1" edge="1">
          <mxGeometry relative="1" as="geometry">
            <mxPoint x="187" y="226" as="sourcePoint" />
            <mxPoint x="39" y="225" as="targetPoint" />
          </mxGeometry>
        </mxCell>
      </root>
    </mxGraphModel>
  </diagram>
</mxfile>
